<svg width="13" height="13" viewBox="0 0 13 13" fill="none" xmlns="http://www.w3.org/2000/svg">
<g clip-path="url(#clip0)">
<path fill-rule="evenodd" clip-rule="evenodd" d="M9.18359 1.74561C8.63131 1.74561 8.18359 2.19332 8.18359 2.74561C8.18359 3.29789 8.63131 3.74561 9.18359 3.74561C9.73588 3.74561 10.1836 3.29789 10.1836 2.74561C10.1836 2.19332 9.73588 1.74561 9.18359 1.74561ZM7.18359 2.74561C7.18359 1.64104 8.07902 0.745605 9.18359 0.745605C10.2882 0.745605 11.1836 1.64104 11.1836 2.74561C11.1836 3.85018 10.2882 4.74561 9.18359 4.74561C8.07902 4.74561 7.18359 3.85018 7.18359 2.74561Z" fill="#222326"/>
<path fill-rule="evenodd" clip-rule="evenodd" d="M3.18359 5.24561C2.63131 5.24561 2.18359 5.69332 2.18359 6.24561C2.18359 6.79789 2.63131 7.24561 3.18359 7.24561C3.73588 7.24561 4.18359 6.79789 4.18359 6.24561C4.18359 5.69332 3.73588 5.24561 3.18359 5.24561ZM1.18359 6.24561C1.18359 5.14104 2.07902 4.24561 3.18359 4.24561C4.28816 4.24561 5.18359 5.14104 5.18359 6.24561C5.18359 7.35018 4.28816 8.24561 3.18359 8.24561C2.07902 8.24561 1.18359 7.35018 1.18359 6.24561Z" fill="#222326"/>
<path fill-rule="evenodd" clip-rule="evenodd" d="M9.18359 8.74561C8.63131 8.74561 8.18359 9.19332 8.18359 9.74561C8.18359 10.2979 8.63131 10.7456 9.18359 10.7456C9.73588 10.7456 10.1836 10.2979 10.1836 9.74561C10.1836 9.19332 9.73588 8.74561 9.18359 8.74561ZM7.18359 9.74561C7.18359 8.64104 8.07902 7.74561 9.18359 7.74561C10.2882 7.74561 11.1836 8.64104 11.1836 9.74561C11.1836 10.8502 10.2882 11.7456 9.18359 11.7456C8.07902 11.7456 7.18359 10.8502 7.18359 9.74561Z" fill="#222326"/>
<path fill-rule="evenodd" clip-rule="evenodd" d="M4.24985 6.92587C4.38888 6.68728 4.695 6.60657 4.93359 6.74561L7.93359 8.49561C8.17218 8.63464 8.25289 8.94076 8.11386 9.17935C7.97483 9.41794 7.66871 9.49865 7.43012 9.35961L4.43012 7.60961C4.19153 7.47058 4.11082 7.16446 4.24985 6.92587Z" fill="#222326"/>
<path fill-rule="evenodd" clip-rule="evenodd" d="M8.11342 3.31175C8.25261 3.55025 8.1721 3.85642 7.93359 3.99561L4.93762 5.85929C4.69912 5.99848 4.39295 5.91796 4.25376 5.67946C4.11458 5.44096 4.19509 5.13479 4.43359 4.99561L7.42957 3.13192C7.66807 2.99274 7.97424 3.07325 8.11342 3.31175Z" fill="#222326"/>
</g>
<defs>
<clipPath id="clip0">
<path d="M0.183594 0.245605H12.1836V12.2456H0.183594V0.245605Z" fill="white"/>
</clipPath>
</defs>
</svg>
